<svg width="400" height="400" xmlns="http://www.w3.org/2000/svg" xmlns:svg="http://www.w3.org/2000/svg">
 <g class="layer">
  <title>Layer 1</title>
  <path d="m50,90c-1,0 -1.80133,0 -2.75716,0c-0.909,0 -1.52551,0.00242 -2.57617,0c-0.9765,-0.00225 -1.68867,-0.00212 -2.4185,-0.05717c-1.08395,-0.08176 -2.09124,-0.29448 -2.72733,-0.44283c-0.91985,-0.21453 -1.82193,-0.36999 -2.72083,-0.48534c-0.90118,-0.11564 -1.81619,-0.31142 -2.7,-0.72449c-0.61224,-0.28615 -1.18163,-0.6785 -2.4,-1.26884c-0.59161,-0.28665 -1.50768,-0.62952 -2.1,-0.90533c-1.21409,-0.56533 -1.78674,-0.92894 -2.328,-1.29066c-0.95339,-0.63717 -1.6189,-1.19135 -2.15467,-1.70934c-0.7822,-0.75623 -1.30801,-1.27498 -2.09583,-2.09483c-0.51125,-0.53203 -1.04449,-1.34485 -1.317,-2.0265c-0.29362,-0.73445 -0.46943,-1.88377 -0.75716,-2.68567c-0.27857,-0.77635 -0.97411,-1.63126 -1.24284,-2.31883c-0.29873,-0.76436 -0.57037,-1.81924 -0.64733,-2.533c-0.09158,-0.84937 -0.05717,-1.8585 -0.05717,-2.69316c0,-0.93067 0,-1.71217 0,-2.50267c0,-1.1185 -0.03196,-2.01022 0.0045,-2.914c0.02808,-0.69609 0.42505,-1.7373 0.88216,-2.23133c0.73485,-0.79419 1.3371,-1.23183 1.87067,-2.0945c0.41923,-0.67782 1.16366,-1.33487 1.67467,-1.8215c0.69581,-0.66261 1.35211,-1.19355 2.22066,-1.55717c0.71642,-0.29992 1.44688,-0.86453 2.10001,-1.34283c0.71414,-0.52298 1.576,-1.00523 2.49916,-1.24733c0.7065,-0.18528 1.7604,-0.40253 2.269,-0.5735c0.80044,-0.26907 1.77767,-0.71923 2.6685,-1.04317c0.99464,-0.36169 1.82465,-0.30933 2.644,-0.60267c0.80879,-0.28956 1.57178,-0.73364 2.47116,-0.83783c0.87146,-0.10096 1.61483,-0.65267 2.5275,-0.91016c0.84452,-0.23827 1.6,-0.08533 2.61083,-0.08533c0.7425,0 1.8,0 2.65717,0c0.9,0 1.7,0 2.6,0c0.936,0 1.85912,-0.29697 2.73067,0.08533c0.76463,0.33541 1.42093,0.92704 2.06934,1.4355c0.76675,0.60125 1.15178,1.30536 1.55267,2.17917c0.33279,0.72539 1.17464,1.31296 1.59016,2.05717c0.46111,0.82585 0.30995,1.63257 0.7825,2.60683c0.37737,0.77801 0.60406,1.45629 0.85867,2.404c0.19802,0.73707 0.42298,1.46614 0.69067,2.57066c0.23864,0.98465 0.62898,1.62733 0.90383,2.64017c0.18108,0.66731 0.1215,1.56384 0.1215,2.52117c0,0.732 0,1.828 0,2.7c0,0.9 0,1.8 0,2.6c0,0.89999 0.16521,1.81919 -0.02084,2.7c-0.17899,0.8474 -0.71293,1.66003 -1.14583,2.5c-0.36771,0.71349 -1.25083,1.20025 -1.66667,2c-0.38676,0.74381 -0.74458,1.39037 -1.556,1.97467c-0.66484,0.47874 -0.93883,1.34412 -1.58983,2.00449c-0.60937,0.61813 -1.5028,0.8671 -2.02534,1.3735c-0.53928,0.52264 -1.01754,1.2274 -1.7115,1.646c-0.71664,0.43227 -1.48267,0.916 -2.36933,1.00134l-0.88934,0l-0.904,0" fill="none" id="svg_2" stroke="#61dafb" stroke-width="5"/>
  <path d="m41,109c0,1 0.02578,1.75766 -0.0045,2.66617c-0.02846,0.85382 -0.21353,1.97732 -0.34817,2.64366c-0.14381,0.71173 -0.32792,1.437 -0.52633,2.869c-0.09297,0.67101 -0.1256,1.34978 -0.288,2.031c-0.27176,1.13987 -0.67359,1.96327 -1.11967,2.83017c-0.22771,0.44254 -0.71849,1.29408 -1.38,2.46c-0.36734,0.64745 -0.69706,1.22344 -1.0815,2.11517c-0.44805,1.03925 -0.7375,1.9198 -0.9,2.3955c-0.33724,0.98722 -0.50902,1.48259 -0.78249,2.45333c-0.35036,1.24369 -0.44508,1.91408 -0.6175,2.97517c-0.15999,0.9846 -0.38172,1.79873 -0.5625,2.37151c-0.37666,1.19341 -0.59433,1.78905 -0.88934,2.71017c-0.20345,0.63523 -0.5086,1.6435 -0.69867,2.36317c-0.29383,1.11256 -0.47321,1.85863 -0.63467,2.94933c-0.10089,0.68155 -0.15811,1.68821 -0.21933,2.3765c-0.10004,1.12482 -0.22395,1.95839 -0.38333,2.83015c-0.08044,0.44 -0.23491,1.30656 -0.564,2.46001c-0.27242,0.9548 -0.61699,1.80681 -0.8,2.43733c-0.33079,1.13963 -0.49985,2.07703 -0.58933,2.57466c-0.18361,1.0211 -0.2775,1.53156 -0.444,2.98801c-0.09662,0.84518 -0.13735,1.61362 -0.19199,2.34c-0.05469,0.72697 -0.18888,1.90347 -0.32734,2.75633c-0.14013,0.8632 -0.30746,1.68182 -0.48067,2.737c-0.12312,0.75008 -0.2393,1.71967 -0.45066,2.72c-0.13414,0.63489 -0.33212,1.29915 -0.54934,2.61334c-0.13548,0.81963 -0.16133,1.54794 -0.16666,2.5c-0.00438,0.78148 0.02516,1.57228 -0.00017,2.69066c-0.01798,0.79395 -0.22456,1.68454 -0.49983,2.6635c-0.14917,0.53049 -0.44075,1.79321 -0.47916,2.47917c-0.06524,1.16504 -0.02084,1.95267 -0.02084,2.77467c0,1.05865 0.00005,1.77266 0,2.45065c-0.00008,1.19601 0.0309,2.0034 -0.05717,2.82201c-0.11172,1.03848 -0.40318,1.7282 -0.59016,2.46249c-0.28526,1.12027 -0.31128,1.79041 -0.342,2.80351c-0.0192,0.6331 -0.01067,1.81966 -0.01067,2.56799c0,0.96533 0,1.80533 0,2.80267c0,0.81599 0,1.63199 0,2.63199c0,0.90933 0,1.85068 0,2.63667c0,0.82201 0,1.88066 0,2.59917c0,0.95799 0,1.78149 0,2.75349c0,0.69467 0,1.72667 0,2.65201c0,0.79199 0,1.548 0,2.68517c0,0.65833 0,1.67084 0,2.30417c0,1.19083 0,2.01999 0,3.05867c0,0.74399 0,1.85216 0,2.68132c0,0.81334 0,1.67134 0,2.63734c0,0.62399 0,1.81349 0,2.64265c0,0.80267 0,1.81868 0,2.86667c0,0.714 0,1.392 0,2.58817c0,0.8145 0,1.38918 0,2.57851c0,0.9045 0,1.52083 0,2.48534c0,1.03616 0,1.77184 0,2.53549c0,0.78368 0,1.97917 0,2.7805c0,0.80934 -0.00005,1.63467 0,2.48401c0.00008,1.336 0.00127,2.26738 0.01067,2.73999c0.01886,0.94949 0.05396,1.89275 0.156,2.808c0.09869,0.88513 0.26254,1.74275 0.444,2.59201c0.18379,0.86015 0.39474,1.74017 0.58801,2.65733c0.19615,0.93085 0.37092,1.85504 0.44416,2.3075c0.20625,1.27405 0.29169,2.04083 0.33633,3.10983c0.02943,0.70491 0.02084,1.83333 0.02084,2.668c0,0.88266 0,1.332 0,2.22667c0,1.272 -0.01736,2.03651 0.02084,3.0845c0.0244,0.66954 0.13226,1.6899 0.33183,2.77348c0.13797,0.74911 0.32139,1.49045 0.48067,2.58069c0.0994,0.68042 0.15641,1.66757 0.21933,2.31934c0.09805,1.01566 0.29802,2.09589 0.44733,2.82648c0.14539,0.7114 0.37465,1.68326 0.464,2.75952c0.05875,0.70776 0.01964,1.6832 0.04667,2.49731c0.02886,0.86926 0.12283,1.7717 0.3465,2.65952c0.22103,0.87732 0.44675,1.41812 0.93833,2.65182c0.26993,0.67743 0.55729,1.61676 0.65183,2.40533c0.09828,0.81982 0.18192,1.89172 0.40984,2.59467c0.29907,0.92239 0.75384,1.86984 1.03217,2.66733c0.18201,0.52151 0.47607,1.64523 0.63599,2.436c0.18104,0.89514 0.42296,1.59351 0.69067,2.58133c0.25811,0.95239 0.42629,1.6701 0.98933,2.42517c0.42416,0.56885 1.08617,1.53412 1.27383,2.34283c0.22999,0.99109 0.41113,1.81424 0.82217,2.51468c0.45043,0.76758 1.03254,1.4386 1.39867,2.25467c0.33122,0.73828 0.57275,1.55936 1.00134,2.54666c0.30061,0.6925 0.67248,1.37497 1.28267,2.36798c0.33505,0.54526 0.87373,1.35699 1.34933,2.14935c0.42792,0.71289 0.80587,1.44217 1.5,2.5c0.42141,0.64221 0.91272,1.31012 1.416,1.97998c0.47831,0.63663 1.121,1.41214 1.58933,2.01068c0.56002,0.71573 1.145,1.73233 1.508,2.37332c0.39673,0.70053 0.81905,1.43585 1.32,2.13602c0.49826,0.69641 1.06106,1.33838 1.644,1.95599c0.5825,0.61716 1.489,1.51031 2.08033,2.10165c0.56734,0.56735 1.09467,1.09467 1.96633,1.96634c0.492,0.492 1.11274,1.10861 1.68533,1.68552c0.71057,0.71594 1.22307,1.22806 1.68934,1.77448c0.82994,0.97256 1.22604,1.69589 1.736,2.28134c0.74374,0.85382 1.27965,1.21075 2.08383,1.74417c0.76891,0.51001 1.46168,0.94958 2.2865,1.2955c0.89064,0.37354 1.64986,0.49612 2.6715,1.0715c0.52122,0.29355 1.28992,0.83795 2.3075,1.40482c0.69217,0.38559 1.18243,0.61023 2.32549,0.98535c0.66161,0.21713 1.3793,0.39532 2.4745,0.69998c1.06227,0.2955 1.725,0.48807 2.636,0.80002c0.56256,0.19263 1.56076,0.60773 2.2675,0.89999c0.74517,0.30817 1.94816,0.70596 2.65116,0.89999c0.74762,0.20636 1.53096,0.39883 2.72768,0.70001c0.79152,0.19922 1.56157,0.38968 2.286,0.60001c0.98517,0.28601 1.80687,0.61798 2.601,0.89999c1.2039,0.42752 1.96469,0.60266 2.78934,0.79999c0.42368,0.10138 1.27415,0.27008 2.424,0.60001c0.94484,0.27109 1.72664,0.62564 2.83333,0.83334c0.62904,0.11804 1.31921,0.11935 2.36134,0.21933c0.97418,0.09348 1.80278,0.29633 2.556,0.55798c1.08682,0.37756 1.71417,0.5997 2.39999,0.77869c1.03952,0.27127 2.01437,0.45648 2.83951,0.55798c0.72322,0.08896 1.93385,0.26324 2.72449,0.478c0.77846,0.21146 1.63718,0.50464 2.436,0.564c1.11432,0.08279 1.84933,0.01068 2.58133,0.01068c1.12801,0 1.8214,-0.00961 2.82001,0.00134c0.94814,0.01038 1.61195,-0.05298 2.68399,0.22c0.78809,0.20068 1.76068,0.64227 2.62201,0.7215c0.64032,0.0589 1.59,0.05649 2.59,0.05716c0.91,0.00061 1.81638,-0.01193 2.73866,0.01068c0.67361,0.01651 1.35941,0.00909 2.54533,0.27332c0.77872,0.17349 1.52815,0.48737 2.73601,0.63068c0.67967,0.08063 1.3813,0.07999 2.69867,0.08533c0.82799,0.00336 1.584,0 2.66666,0c0.636,0 1.328,0 2.4185,0c1.0815,0 1.76726,0.0145 2.78984,-0.02084c0.7258,-0.02509 1.95886,-0.14151 2.42216,-0.20065c0.99089,-0.1265 1.50366,-0.20224 2.52417,-0.38916c0.97688,-0.17896 2.23132,-0.47342 2.89233,-0.68933c0.85596,-0.27957 1.37733,-0.52383 2.58899,-0.90002c0.68793,-0.21359 1.41689,-0.39676 2.14801,-0.59998c1.06247,-0.29532 2.04762,-0.59702 2.672,-0.80002c1.21255,-0.39423 1.81181,-0.5928 2.68983,-0.89999c0.83792,-0.29315 1.83958,-0.6911 2.5,-1c0.62347,-0.29163 1.62982,-0.8045 2.29283,-1.13599c1.06134,-0.53064 1.69307,-0.84991 2.368,-1.17868c0.67178,-0.32724 1.8662,-0.83514 2.68401,-1.14532c0.73386,-0.27835 1.44589,-0.6955 2.034,-1.10251c0.64864,-0.44888 1.29614,-0.92142 2.37767,-1.79449c0.57355,-0.46301 1.42686,-1.14987 2.08966,-1.543c0.68648,-0.40717 1.57784,-0.99622 2.05867,-1.57068c0.64099,-0.76581 1.1161,-1.54611 1.52049,-2.02399c0.75804,-0.89578 1.41782,-1.32672 1.9955,-1.81067c0.83391,-0.69858 1.39285,-1.44272 1.76401,-1.944c0.67574,-0.91263 1.20203,-1.59753 1.72,-2.13333c0.75624,-0.78223 1.30103,-1.2818 1.94933,-1.95068c0.65649,-0.67734 1.17902,-1.49463 1.46667,-2.172c0.31357,-0.73837 0.65773,-1.68927 1.22083,-2.49466c0.33989,-0.48615 0.96317,-1.26801 1.47917,-2c0.51601,-0.73199 1.15739,-1.50146 1.58934,-2.15067c0.5694,-0.8558 0.83357,-1.60065 1.0535,-2.40115c0.27913,-1.01599 0.26144,-1.74307 0.52649,-2.63217c0.30721,-1.03052 0.69861,-1.52103 1.12534,-2.30618c0.55891,-1.02838 0.72983,-1.76627 1.058,-2.66699c0.27501,-0.75479 0.55479,-1.74533 0.67267,-2.57883c0.13181,-0.93207 0.32809,-1.71198 0.54933,-2.50269c0.25957,-0.92773 0.39026,-1.76938 0.64667,-2.80417c0.17964,-0.72495 0.47527,-1.49911 0.65717,-2.53549c0.11763,-0.67014 0.07849,-1.75757 0.14233,-2.46332c0.08733,-0.96542 0.33234,-1.81622 0.47917,-2.45834c0.21675,-0.94781 0.44876,-1.94678 0.48933,-2.71201c0.06744,-1.27176 0.01067,-2.00317 0.01067,-2.80884c0,-0.82565 0,-1.97916 0,-2.62448c0,-0.81302 0,-2.02133 0,-2.80734c0,-0.82199 0,-1.88068 0,-2.59915c0,-0.7095 0,-1.78152 0,-2.75803c0,-0.711 0,-1.44199 0,-2.5235c0,-1.01849 0,-1.6875 0,-2.3765c0,-1.1235 0,-1.95682 0,-2.83017c0,-0.87332 0,-1.70667 0,-2.79584c0,-0.8775 0,-1.66498 0,-2.80664c0,-0.65836 0,-1.67084 0,-2.30417c0,-1.19984 0,-1.96851 0,-3.03868c0,-0.72533 0,-1.51466 0,-2.304c0,-1.04399 0,-1.98799 0,-3.04399c0,-0.6765 0,-1.45201 0,-2.5c0,-0.92 0,-1.68001 0,-2.72c0,-0.88951 0.00061,-1.79851 0,-2.6895c-0.00067,-0.95717 -0.25409,-1.70027 -0.64734,-2.40001c-0.46355,-0.82484 -0.2572,-1.8017 -0.63666,-2.55716c-0.43558,-0.8672 -0.77039,-1.49904 -1.216,-2.3c-0.44455,-0.79906 -0.20636,-1.77934 -0.58533,-2.584c-0.33905,-0.71989 -0.8786,-1.46736 -0.936,-1.46933c-0.97037,-0.03328 -0.82938,1.38892 -1.496,2.06934c-0.72314,0.73811 -1.26947,1.22589 -2.25067,1.68399c-0.71681,0.33467 -1.49811,0.53828 -2.26534,1.00267c-0.68819,0.41653 -1.46478,1.13306 -2.01866,1.56534c-0.6219,0.48537 -1.27629,0.97583 -1.896,1.46399c-1.00436,0.79117 -1.67786,1.40123 -2.21867,2.10133c-0.50699,0.65631 -0.9879,1.43077 -1.66666,2.33334c-0.39354,0.52332 -1.114,1.28065 -1.6875,1.85416c-0.67784,0.67784 -1.37746,1.25494 -1.90451,1.91518c-0.56647,0.70961 -0.61644,1.69371 -1.27916,2.20683c-0.6964,0.53918 -1.49696,0.92345 -1.93834,1.65182c-0.52719,0.87 -1.07317,1.42134 -1.35716,2.28l-0.5,0.42534l-0.5,0.42534" fill="none" id="svg_4" stroke="#61dafb" stroke-width="5"/>
  <text fill="#000000" font-family="serif" font-size="24" id="svg_5" stroke="#61dafb" stroke-width="0" text-anchor="middle" transform="matrix(2.01159 0 0 3.24138 -82.6344 -356.379)" x="141" xml:space="preserve" y="180"/>
  <path d="m75,136c0,1.5625 0,2.543 0,3.272c0,0.837 0,2.02816 0,2.6325c0,0.9315 0.00748,1.58086 -0.00134,2.98883c-0.00505,0.8067 -0.01275,1.25277 -0.05583,2.25417c-0.02435,0.56601 -0.10699,1.8527 -0.16433,2.5805c-0.06116,0.77621 -0.13329,1.58823 -0.2145,2.424c-0.08242,0.84825 -0.17178,1.69635 -0.2685,2.53201c-0.09402,0.81233 -0.28802,2.31715 -0.39584,2.98799c-0.19515,1.21425 -0.3078,1.77908 -0.57166,2.88c-0.13557,0.56566 -0.29411,1.15327 -0.66134,2.448c-0.2066,0.72839 -0.43343,1.5013 -0.6675,2.30701c-0.23927,0.82362 -0.47982,1.65089 -0.7125,2.46899c-0.22562,0.79326 -0.45178,1.5446 -0.78667,2.89067c-0.26251,1.05515 -0.41428,1.91136 -0.576,2.664c-0.16605,0.77286 -0.41582,1.67197 -0.776,2.77466c-0.20143,0.61668 -0.42477,1.25708 -0.648,1.9155c-0.22476,0.66292 -0.67731,1.95219 -1,3.14584c-0.27149,1.00429 -0.34425,1.45987 -0.47916,2.29166c-0.12808,0.78966 -0.34094,2.04504 -0.59017,2.99367c-0.13344,0.5079 -0.44905,1.54878 -0.616,2.07201c-0.32722,1.02554 -0.6507,1.9751 -0.92934,2.82266c-0.25178,0.76587 -0.48548,1.4903 -0.684,2.22c-0.31877,1.17172 -0.50452,2.04698 -0.70133,2.97501c-0.10165,0.47931 -0.29962,1.46107 -0.5,2.45833c-0.20095,1.00008 -0.40687,2.00085 -0.52084,2.5c-0.22872,1.00177 -0.34084,1.50708 -0.80033,2.9995c-0.15363,0.49899 -0.49497,1.46799 -0.8175,2.3925c-0.1522,0.43626 -0.55557,1.60178 -0.756,2.5545c-0.18105,0.8606 -0.24944,1.49681 -0.548,2.63882c-0.24329,0.93062 -0.40949,1.41556 -0.70667,2.41335c-0.14607,0.49045 -0.53126,1.83163 -0.68267,2.56267c-0.18509,0.89362 -0.30213,1.71532 -0.61066,2.5815c-0.36816,1.03357 -0.73286,1.73291 -0.98933,2.4745c-0.36266,1.0486 -0.4408,1.71912 -0.58266,2.59999c-0.18419,1.14368 -0.68153,1.85909 -0.9,2.76534c-0.19019,0.78893 -0.2274,1.75044 -0.08533,2.60133c0.14464,0.86632 1.1,0.916 2,0.916c0.75716,0 1.66549,-0.03702 2.46167,0.05716c0.96709,0.1144 1.78706,0.3564 2.64283,0.70451c0.91039,0.37033 1.78907,0.88992 2.37466,1.2175c0.56184,0.31429 1.59308,0.80513 2.5,1c1.01475,0.21805 1.82608,0.44542 2.42084,0.72533c1.00925,0.47498 1.57446,0.85736 2.6,1.12883c0.77518,0.2052 1.83641,0.32745 2.47916,0.66667c0.82485,0.43532 1.79127,0.22588 2.60484,0.58533c0.76577,0.33833 1.516,0.90401 2.39516,0.91467l0.8735,0" fill="none" id="svg_9" stroke="#bfbf00" stroke-width="5"/>
  <path d="m104,161c0,0.87199 0,1.60266 0,2.60001c0,0.79999 0,1.80266 0,2.672c0,1.06133 0,1.69733 0,2.38933c0,1.0905 0,2.172 0,2.856c0,1.00349 0,1.6925 0,2.81599c0,0.83734 0,1.73868 0,2.20834c0,0.96733 0,2.45833 0,2.95782c0,0.987 0,1.46851 0,2.3925c0,0.85201 0.02765,2.25323 -0.02083,3.0455c-0.04041,0.66042 -0.35988,1.66275 -0.55383,2.3345c-0.30302,1.04951 -0.37817,2.03287 -0.40451,2.728c-0.02631,0.69437 -0.02083,1.95717 -0.02083,2.73866c0,0.944 0,1.94534 0,2.76134c0,0.81599 0,1.81467 0,2.47917c0,1.02083 0,2 0,2.85416c0,0.79201 0,1.81934 0,2.51401c0,1.02733 0.0006,1.974 0,2.82733c-0.00067,0.944 -0.03967,1.69571 -0.22133,2.58934c-0.18616,0.9158 -0.38707,1.55309 -0.612,2.73599c-0.15388,0.80927 -0.16667,1.83333 -0.16667,2.50534c0,0.74399 0,1.85182 0,2.74283c0,0.9045 0,1.59917 0,2.61583c0,0.9315 0,1.80533 0,2.636c0,0.97917 0,1.80133 0,2.71466c0,0.93268 0,1.78534 0,2.73201c0,0.8745 0,1.692 0,2.65866c0,0.756 0,1.728 0,2.52c0,1.02733 0,1.722 0,2.73866c0,0.936 0,1.836 0,2.73601c0,0.89999 0,1.77849 0,2.616l0,0.93134" fill="none" id="svg_10" stroke="#bfbf00" stroke-width="5"/>
  <path d="m97,144c1.02083,0 1.86133,0 2.83333,0c0.79201,0 1.65067,0 2.51401,0c0.89999,0 1.81934,0.00007 2.65266,0c0.97867,-0.00008 1.7713,-0.00577 2.64816,-0.35267c0.80225,-0.31738 1.709,-0.64733 2.55051,-0.64733l0.968,0l0.85866,0l0.91751,0" fill="none" id="svg_11" stroke="#bfbf00" stroke-width="5"/>
  <path d="m134,160c-0.57466,0.57466 -1.16933,1.16933 -1.86133,1.86133c-0.49051,0.49051 -1.25464,1.2547 -1.76401,1.76401c-0.69595,0.69588 -1.33194,1.40793 -1.89067,1.80533c-0.90323,0.64244 -1.85474,0.88348 -2.284,1.54134c-0.48781,0.74756 -0.68503,1.56621 -1.08533,2.34534c-0.40082,0.78017 -0.97839,1.41257 -1.40483,2.07816c-0.61473,0.95949 -0.58293,1.82072 -0.99518,2.7205c-0.3175,0.69299 -1.06593,1.5177 -1.3575,2.2885c-0.29355,0.77606 -0.28195,1.61099 -0.52383,2.5955c-0.19818,0.80666 -0.66933,1.49072 -0.8125,2.52083c-0.1407,1.01231 -0.02083,1.72984 -0.02083,2.47383c0,1.19551 0,1.888 0,2.84134c0,0.76534 -0.00053,1.76401 0,2.564c0.00067,0.99867 -0.11942,1.81898 0.28534,2.716c0.38055,0.84337 1.05652,1.51537 1.3575,2.23134c0.36711,0.87328 0.81546,1.73175 1.35716,2.15266c0.85938,0.66777 1.21165,1.37558 2.0625,1.7955c0.67021,0.33076 1.80275,0.54625 2.55217,0.72983c0.88095,0.21579 1.53946,0.6124 2.50133,0.89067c0.7552,0.21848 1.69043,0.55913 2.40001,0.8c0.98358,0.33388 2.02649,0.284 2.724,0.284c0.90666,0 1.84579,0.09053 2.75999,0c0.8457,-0.08374 1.22597,-0.96278 1.64734,-1.7c0.43813,-0.76653 0.95398,-1.45544 1.502,-1.90001c0.79887,-0.64807 0.98875,-1.38675 1.556,-2.40533c0.28014,-0.50304 0.77943,-1.20303 1.18933,-2.18933c0.31477,-0.75742 0.67332,-1.57333 1.10533,-2.30533c0.43201,-0.73199 0.88646,-1.6956 1.08267,-2.468c0.26498,-1.04311 0.53929,-1.80678 0.75066,-2.86533c0.14145,-0.70837 0.16133,-1.39197 0.16667,-2.58801c0.00359,-0.80397 0,-1.62599 0,-2.65732c0,-0.69601 0,-1.60535 0,-2.604c0,-0.79651 0,-1.548 0,-2.66667c0,-0.98399 0.04138,-1.65938 -0.036,-2.39999c-0.11673,-1.11717 -0.60666,-1.84424 -1.06384,-2.57184c-0.50015,-0.79599 -0.89949,-1.67616 -0.90016,-0.8775c-0.00076,0.91333 0.17195,1.86406 0.35266,2.62283c0.15178,0.6373 0.33548,1.33061 0.526,2.754c0.08746,0.65343 0.04132,1.56094 0.28801,2.48851c0.23566,0.88609 0.68419,1.83099 0.74933,2.388c0.11507,0.98386 0.09215,1.70731 0.25067,2.77866c0.15244,1.03021 0.36671,1.71091 0.595,2.43367c0.39087,1.23755 0.56177,1.69609 0.88649,2.68651c0.16768,0.51144 0.4964,1.53275 0.642,2.03133c0.39246,1.34395 0.60609,2.40874 0.70984,3.036c0.10696,0.64673 0.3269,1.81406 0.56799,2.80051c0.13379,0.54738 0.28609,1.11513 0.58134,2.28799c0.14703,0.58408 0.52467,2.22267 0.608,2.70534c0.15063,0.87247 0.22752,1.68744 0.34799,2.496c0.20262,1.36003 0.32976,1.8763 0.60001,2.9955c0.14137,0.58548 0.29697,1.17242 0.58932,2.326c0.13843,0.54622 0.49037,1.95667 0.591,2.7c0.12918,0.9543 0.11299,1.60249 0.11433,2.75316c0.00107,0.92534 0,1.416 0,2.41335c0,0.96533 0,1.83466 0,2.88615c0,0.88051 0,1.46584 0,2.47917c0,0.79401 0,1.636 0,2.478c0,1.158 0,2.10001 0,2.93401c0,1.224 0,1.97467 0,2.78934c0,0.82266 0.01831,1.59749 -0.00133,2.79733c-0.01009,0.61673 -0.15201,1.6404 -0.35583,2.49533c-0.15366,0.64447 -0.3457,1.63538 -0.84418,2.58733c-0.36607,0.69913 -1.12837,1.3681 -1.62399,1.89067c-0.53111,0.56 -1.12518,1.38342 -1.67467,2.14317c-0.63498,0.87798 -1.15584,1.25882 -1.84734,1.71632c-0.90419,0.59822 -1.51083,1.14709 -2.30533,1.60001c-0.67473,0.38464 -1.7605,0.56961 -2.54733,0.98849c-0.65263,0.34744 -1.55716,0.71375 -2.45267,0.716c-0.69467,0.00174 -1.71133,0.00139 -2.64734,0c-0.89999,-0.00134 -1.72688,-0.31456 -2.2,-1.02083c-0.53096,-0.79262 -0.97641,-1.48207 -1.70134,-2.17917c-0.53889,-0.5182 -1.29166,-0.98485 -1.97333,-1.40001c-0.95305,-0.58043 -1.56494,-1.12852 -2.024,-1.88399c-0.40575,-0.66772 -0.69597,-1.63783 -0.88533,-2.48534c-0.17982,-0.80478 -0.44337,-1.54457 -0.632,-2.34801c-0.23273,-0.99127 -0.27333,-1.90799 -0.284,-2.84933l0,-0.77699l0,-0.98933" fill="none" id="svg_12" stroke="#bfbf00" stroke-width="5"/>
  <path d="m168,150c0,1.8 0,2.636 0,3.48534c0,0.91916 0,1.916 0,2.75066c0,0.93068 0,1.72568 0,2.61067c0,0.64 0,1.67484 0,2.41051c0,1.15349 0,1.94417 0,3.14265c0,0.79567 0,1.57935 0,2.343c0,1.0905 0,1.76917 0,2.69467c0,0.7905 0,1.94383 0,2.53934c0,1.23 0,2.091 0,2.5605c0,0.972 0,1.92799 0,3.17715c0,0.67033 0,1.55084 0,2.13617c0,1.40134 0,2.22534 0,2.64934c0,0.842 0.00909,2.33614 -0.0045,2.942c-0.01874,0.83438 -0.15823,2.05862 -0.2795,2.814c-0.1369,0.85274 -0.22992,1.30446 -0.36334,2.25751c-0.2077,1.48361 -0.23849,1.98621 -0.29999,2.991c-0.03096,0.50595 -0.07324,1.53177 -0.10535,2.05266c-0.09927,1.61049 -0.16162,2.16467 -0.29999,3.28651c-0.06917,0.56078 -0.22467,1.65863 -0.29468,2.18933c-0.19339,1.46603 -0.27063,2.31218 -0.32733,3.06966c-0.05249,0.7012 -0.06879,1.3851 -0.31067,2.78134c-0.12914,0.74539 -0.31714,1.49281 -0.51599,2.23199c-0.28674,1.0659 -0.51529,1.72578 -0.76266,2.70934c-0.16481,0.65526 -0.32436,1.69502 -0.41068,2.78934c-0.05707,0.72353 -0.04022,1.42958 -0.30933,2.616c-0.17233,0.75975 -0.48996,1.44221 -0.63068,2.452c-0.11029,0.79147 -0.08525,1.98401 -0.08533,2.79651c-0.00009,0.84216 0.1041,1.74416 -0.284,2.6355c-0.32295,0.74174 0.23134,2.47775 -0.716,2.47549c-0.69034,-0.00163 -0.0502,-1.47784 0.02133,-2.46883c0.05473,-0.75824 0.30055,-1.79121 0.55067,-2.66267c0.14041,-0.48921 0.48686,-1.54327 0.68533,-2.10133c0.20509,-0.57668 0.90559,-2.35893 1.164,-2.957c0.25893,-0.59929 0.52797,-1.1929 0.80399,-1.77899c0.54276,-1.15247 0.82094,-1.70753 1.09067,-2.25067c0.75949,-1.52933 1.00209,-1.99965 1.44801,-2.90933c0.42862,-0.8744 0.64313,-1.30421 1.23599,-2.62801c0.40804,-0.9111 0.59512,-1.37915 1,-2.29166c0.19762,-0.4454 0.54935,-1.31645 1.19983,-2.37733c0.54803,-0.8938 1.02342,-1.32973 1.6335,-2.33101c0.46539,-0.76382 0.64537,-1.37692 1.136,-2.23466c0.52913,-0.92505 1.02579,-1.49875 1.53067,-2.05699c0.485,-0.53624 1.32755,-1.43089 1.97917,-2c0.65923,-0.57574 1.49617,-1.08563 2.35416,-1.375c0.73911,-0.24928 1.47708,-0.78413 2.36534,-1.08134c0.84348,-0.28223 1.79091,-0.06471 1.80133,0.716c0.01199,0.89859 0,1.83467 0,2.68134c0,0.8075 0,1.85066 0,2.70267c0,0.93201 0,1.784 0,2.584c0,0.7515 0,1.548 0,2.778c0,0.67799 0,1.87401 0,2.67799c0,0.82201 0.02515,1.85403 -0.01067,2.53868c-0.04378,0.83684 -0.3786,1.82346 -0.63667,2.63599c-0.31383,0.98811 -0.30247,1.62927 -0.51933,2.76668c-0.15128,0.79341 -0.42657,1.60349 -0.54933,2.14932c-0.27296,1.21371 -0.24792,2.0567 -0.64116,2.94034c-0.28564,0.64185 -0.76595,1.50084 -1.03217,2.43033c-0.19153,0.66873 -0.35823,1.34161 -0.52667,2.54401c-0.10449,0.74593 -0.23503,1.9399 -0.43666,2.7175c-0.20609,0.7948 -0.48067,1.71851 -0.62651,2.51016l-0.02083,0.931l0,0.89467" fill="none" id="svg_13" stroke="#bfbf00" stroke-width="5"/>
  <path d="m197,154c0,1.8 0,2.636 0,3.48534c0,0.91916 0,1.91867 0,2.57716c0,0.7935 0,1.8015 0,2.5955c0,0.842 0,1.68399 0,2.842c0,0.9375 0,1.74001 0,2.83333c0,0.636 0,1.6875 0,2.4185c0,1.0815 0,1.7655 0,2.769c0,0.68901 0,1.8125 0,2.64717c0,0.88266 0,1.78134 0,2.22667c0,1.272 0,2.03734 0,3.10533c0,0.70534 0,1.83333 0,2.66667c0,0.87332 0,1.74666 0,2.58c0,1.08916 0,1.96666 0,2.75417c0,0.83249 0,1.80899 0,2.51999c0,0.731 0,2.15784 0,2.82651c0,0.65266 0,1.63666 0,2.67383c0,0.72701 0,1.45801 0,2.50951c0,1.20267 0,1.99016 0,2.53183c0,1.30167 0,2.10001 0,2.95833c0,0.43918 0,1.3125 0,2.53618c0,1.071 0,1.72166 0,2.94299c0,0.59734 0,1.45833 0,2.66667c0,0.79166 0,1.63783 0,2.65466c0,0.67867 -0.0416,1.65802 0,2.67867c0.02861,0.70175 0.50262,1.47754 1.00133,2.284c0.42625,0.68929 0.64052,1.2921 1.00934,2.14134c0.31772,0.7316 1.38963,0.61154 1.97867,1.14932c0.49081,0.4481 1.44667,0.42534 2.30617,0.42534c0.92583,0 1.75829,-0.05603 2.31517,-0.61067c0.69072,-0.68794 1.38933,-1.38933 1.95332,-1.95332l0.65735,-0.65733l0.612,-0.612l0.16666,-0.81401" fill="none" id="svg_14" stroke="#bfbf00" stroke-width="5"/>
  <path d="m181,171c1.75717,0 2.66167,0 3.46167,0c0.95967,0 1.76366,0 2.58566,0c1.03149,0 1.9735,0.00008 2.722,0c0.87334,-0.00009 1.8819,0.00188 2.58,-0.036c0.68344,-0.03706 1.88118,-0.24422 2.82933,-0.53867c0.82236,-0.25539 1.61021,-0.40733 2.65466,-0.42534c0.75591,-0.01303 1.66669,0.00485 2.56667,0c0.98938,-0.00534 1.47392,-0.72559 2.21068,-0.98933c0.83736,-0.29976 1.78932,-0.01067 2.69383,-0.01067c0.86217,0 1.6955,0 2.674,0l0.82018,0l0.91599,0l0.86002,0" fill="none" id="svg_15" stroke="#bfbf00" stroke-width="5"/>
  <path d="m227,150c0,1.71434 0,2.409 0,3.39999c0,0.8 0,1.80034 0,2.64168c0,0.72899 0,1.92766 0,2.61966c0,0.724 0,1.45601 0,2.856c0,0.668 0,1.34399 0,2.81599c0,0.40916 0,1.2675 0,2.14584c0,0.85832 -0.01617,2.02104 0.00449,2.95833c0.0177,0.80293 0.15543,1.89711 0.27951,2.5305c0.13403,0.68413 0.39072,1.72183 0.54935,2.69867c0.13245,0.8156 0.1644,1.72433 0.16666,2.73466c0.00186,0.83466 0,1.76534 0,2.55583c0,0.8535 0,1.44417 0,2.64017c0,0.86099 0,1.632 0,2.74133c0,0.98283 0,1.68216 0,2.66133c0,0.8 0,1.60001 0,2.60451c0,0.85266 0,1.81667 0,2.61015c0,0.77551 0,1.98001 0,2.75334c0,0.80133 0,1.81734 0,2.86533c0,0.71851 0,1.42801 0,2.5c0,0.972 0,1.66667 0,2.36134c0,1.2625 0,2.04399 0,2.75349c0,1.23584 0.00043,1.77716 0,2.59917c-0.00067,1.26866 0.04269,1.96237 -0.16666,3.11934c-0.14304,0.7905 -0.38556,1.29907 -0.66669,2.5c-0.16083,0.68695 -0.16666,1.83333 -0.16666,2.38533c0,0.948 0,1.59 0,2.89467c0,0.69333 0,1.82133 0,2.55333c0,0.73199 0.07602,1.86134 -0.22134,2.82133c-0.21707,0.70079 -0.69046,1.50156 -0.77417,2.43134c-0.08072,0.89638 0.1503,1.60817 -0.01517,2.61133c-0.14294,0.86658 -0.94659,1.5486 -0.98932,2.35201c-0.04947,0.93002 0.10623,1.79118 -0.01068,2.73067c-0.11111,0.89279 -0.48932,1.55333 -0.86783,2.53183l-0.12015,0.82016l-0.00134,0.90134l0,0.864" fill="none" id="svg_16" stroke="#bfbf00" stroke-width="5"/>
  <path d="m245,175c-0.76166,0 -1.65268,0 -2.51599,0c-0.98401,0 -1.96802,0 -2.65866,0c-1.06818,0 -1.92535,0 -2.82535,0c-0.75717,0 -1.65268,0 -2.51599,0c-0.96317,0 -1.87335,0 -2.76801,0c-0.93735,0 -1.80133,0 -2.71466,0l-0.88,0l-0.83734,0l-0.85867,0" fill="none" id="svg_17" stroke="#bfbf00" stroke-width="5"/>
  <path d="m248,146c0,1.81467 0,2.832 0,3.72783c0,0.6015 0,1.77217 0,2.52284c0,0.81467 0,1.63733 0,2.412c0,1.20132 0,2.03867 0,3.004c0,0.672 0,1.45599 0,2.304c0,0.864 0,2.08649 0,2.81949c0,1.02451 0,1.6925 0,2.73117c0,1.104 0,1.85333 0,2.59467c0,1.06267 0,2.05867 0,2.70934c0,0.65866 0,2.05733 0,2.78934c0,0.724 0,1.416 0,2.61732c0,1.01868 0,2.10133 0,2.73601c0,0.68266 0,1.72667 0,2.69867c0,0.82799 0,1.584 0,2.66666c0,0.972 0,1.66667 0,2.36134c0,1.26266 0,2.05466 0,2.81067c0,1.13716 0,1.79549 0,2.808c0,0.63333 0,1.81516 0,2.78699c0,0.714 0,1.67033 0,2.44135c0,0.86099 0,2.05699 0,2.64766c0,0.8535 0,1.88901 0,2.769c0,1.02051 0,1.8515 0,2.811c0,0.7515 0,1.548 0,2.54533c0,0.87466 0,1.88533 0,2.68533c0,1 0.0018,1.8 0,2.60001c-0.00226,1 -0.0011,1.81436 -0.284,2.80133c-0.18076,0.63068 -0.58087,1.76157 -0.65884,2.54683c-0.07825,0.78799 -0.05716,1.71851 -0.05716,2.55183c0,1.04266 0,1.75067 0,2.49466c0,1.19101 0.14005,2.13718 -0.08533,2.80534c-0.3096,0.91788 -0.86755,1.68126 -0.91019,2.54733c-0.04404,0.89442 -0.00449,1.85266 -0.00449,2.75284c0,0.78516 0,1.71449 0,2.65717c0,0.81065 0,1.67467 0,2.68533c0,0.70667 0,1.724 0,2.61l0,0.89465l0,0.886" fill="none" id="svg_18" stroke="#bfbf00" stroke-width="5"/>
  <path d="m268,189c0,1 0,1.75717 0,2.67517c0,0.67949 0,1.9915 0,2.86217c0,0.47783 0,1.48349 0,1.99733c0,1.01466 0,2.4015 0,3.21184c0,0.77432 0,1.56866 0,2.92017c0,0.51833 0,1.63499 0,2.21333c0,0.57832 0,1.69499 0,2.21333c0,1.59999 0,2.36499 0,3.03999c0,1.20399 0,1.97867 0,2.80133c0,0.81467 0,1.90117 0,2.77867c0,0.78751 0,1.92934 0,2.592c0,0.69467 -0.00928,1.72672 0.00015,2.65184c0.01044,1.02216 0.05093,1.73291 0.28384,2.72549c0.18851,0.80345 0.3446,1.57297 0.70132,2.65601c0.28098,0.85309 0.86871,1.49362 1.36652,2.00867c0.75195,0.77798 1.34366,1.34816 1.94815,1.95267c0.70001,0.70001 1.27942,1.3069 2.10001,1.67467c0.78384,0.35129 1.46356,0.8461 2.41467,0.98933c0.93283,0.14049 1.75467,0.036 2.53717,0.036c1.01218,0 1.96564,0.17389 2.84818,-0.00267c0.84882,-0.16982 1.26904,-1.03804 1.79999,-1.83066c0.47311,-0.70627 1.02298,-1.49036 1.2955,-2.17201c0.29361,-0.73444 0.58725,-1.85143 0.7045,-2.51549c0.1727,-0.97812 0.35596,-1.84094 0.5,-2.5c0.22107,-1.01141 0.40463,-1.93413 0.46399,-2.7285c0.0564,-0.75456 0.03601,-1.89351 0.03601,-2.5605c0,-1.0755 0,-1.80751 0,-2.86833c0,-0.96451 0,-1.80301 0,-2.6795c0,-0.86501 0.00336,-1.80902 -0.00134,-2.47966c-0.00543,-0.7747 -0.00183,-1.59999 -0.08398,-2.412c-0.14209,-1.40422 -0.43445,-2.22466 -0.56201,-2.75151c-0.27408,-1.13213 -0.32629,-2.13887 -0.34198,-2.8125c-0.02765,-1.18639 0.05035,-1.83318 -0.09601,-2.65332c-0.1886,-1.05698 -0.46411,-1.81114 -0.91467,-2.70001c-0.35358,-0.69754 -1.00687,-1.49586 -1.39999,-2.15866c-0.40717,-0.68648 -1.00201,-1.55756 -1.48535,-2.05867c-0.75403,-0.78172 -1.28931,-1.29066 -2.09314,-2.0945c-0.50067,-0.50067 -1.21774,-1.22533 -1.72153,-1.7215c-0.70538,-0.69472 -1.46881,-1.12291 -2.29999,-1.3c-0.98117,-0.20906 -1.64835,-0.80028 -2.5,-0.97917c-0.89145,-0.18726 -1.82132,-0.03696 -2.63867,-0.02083c-0.91251,0.01801 -1.70517,0.46855 -2.37866,0.716c-0.94135,0.34586 -1.78265,0.63666 -2.58267,1.16266l-0.89999,0.28801l-0.64282,0.48067" fill="none" id="svg_19" stroke="#bfbf00" stroke-width="5"/>
  <path d="m303,191c-0.99866,0.88667 -1,1.82533 -1,2.51601c0,1.07333 0,1.916 0,2.98399c0,0.8625 0,1.52083 0,2.19917c0,1.25833 0,2.06082 0,2.86333c0,0.9375 0,1.69083 0,2.52417c0,0.87334 0,1.74666 0,2.97049c0,0.733 0,1.75751 0,2.42551c0,1.03833 0,1.761 0,2.82001c0,0.64265 0,1.83032 0,2.864c0,0.67999 -0.01151,1.52007 0.00134,2.51599c0.01028,0.79668 0.0043,1.57539 0.42398,2.66667c0.24536,0.638 0.50891,1.66193 0.60001,2.436c0.1236,1.05023 0.32144,1.76598 0.58533,2.43999c0.47107,1.20323 0.64612,1.7446 1.02533,2.51334c0.47293,0.95872 1.1879,1.59145 1.71133,1.95233c0.88855,0.61261 1.38663,1.34724 1.73669,2.10901c0.34454,0.74973 0.93533,1.64711 1.79483,2.07849c0.75061,0.37672 1.63849,0.12151 2.60031,0.12151c0.82083,0 1.72464,0.08212 2.62085,-0.00017c0.91144,-0.08368 1.54123,-0.61844 2.10001,-1.48383c0.43295,-0.6705 0.91574,-1.48279 1.39999,-2.14134c0.62054,-0.84392 0.96844,-1.56984 1.5,-2.3535c0.37814,-0.55746 0.93375,-1.3409 1.28934,-2.27184c0.28046,-0.73424 0.46381,-1.61169 0.66333,-2.55466c0.20523,-0.96989 0.46381,-1.7112 0.59467,-2.24651c0.30621,-1.25264 0.34732,-2.10146 0.35266,-2.927c0.00537,-0.83098 0,-1.7905 0,-2.54199c0,-0.79651 0,-2.0265 0,-2.7045c0,-0.94135 0,-1.72734 0,-2.54935c0,-1.05865 0.02301,-2.00316 -0.05716,-2.67799c-0.11591,-0.97565 -0.35812,-1.77972 -0.64734,-2.59467c-0.36945,-1.04102 -0.68768,-1.73711 -1.05267,-2.40533c-0.53735,-0.9838 -1.07086,-1.77095 -1.41748,-2.32201c-0.66385,-1.05542 -1.05359,-1.77972 -1.45068,-2.41466c-0.51691,-0.82646 -1.01718,-1.41568 -1.54932,-1.97467c-0.78918,-0.82903 -1.32263,-1.33873 -1.992,-2.00267c-0.65604,-0.6507 -1.10205,-1.26268 -2.08069,-1.7235c-0.86853,-0.40897 -1.55081,-0.61017 -2.586,-0.94316c-0.67343,-0.21663 -1.71515,-0.36978 -2.41733,-0.60268c-0.75073,-0.24901 -1.75034,-0.81503 -2.36398,-1.12799c-0.83661,-0.42667 -1.80463,-0.42996 -2.58536,-0.6575c-0.82004,-0.23898 -1.79626,-0.78615 -2.39548,-1.07401c-0.74283,-0.35686 -1.77866,-0.68649 -2.72583,-0.7045c-0.67856,-0.01289 -1.79468,0 -2.56268,0c-0.93066,0 -1.87549,0.00352 -2.552,-0.42534c-0.76532,-0.48517 -1.64801,-0.57466 -2.564,-0.57466l-0.79999,0l-0.91467,0" fill="none" id="svg_20" stroke="#bfbf00" stroke-width="5"/>
  <path d="m329,137c0,1.75717 0,2.66617 0,3.51883c0,0.8145 0,1.791 0,2.502c0,0.731 0,2.158 0,2.83101c0,0.66899 0,1.7175 0,2.89082c0,0.42534 0,1.308 0,2.20668c0,0.88266 0,2.10815 0,2.84982c0,0.72166 0,1.46333 0,2.70084c0,0.952 0,1.45799 0,2.5c0,0.524 0,1.548 0,2.93584c0,0.80167 0,1.54333 0,2.265c0,1.13249 0,1.96584 0,2.83916c0,0.87334 0,1.70668 0,2.79584c0,0.8775 0,1.66501 0,2.80667c0,0.65833 0,1.67084 0,2.30417c0,1.19083 0,2.01999 0,2.82266c0,1.01601 -0.02094,2.06444 0.00449,2.769c0.0289,0.80121 0.48557,1.64937 0.82886,2.62834c0.22568,0.64354 0.16599,1.43466 0.16666,2.42883c0.00061,0.91916 0,1.88367 0,2.82584c0,0.91199 0,1.584 0,2.57332c0,0.8625 -0.02972,1.75414 0.00449,2.66251c0.0282,0.74866 0.30103,1.73534 0.57019,2.54283c0.33047,0.99135 0.41489,1.77901 0.42532,2.7785c0.00854,0.82011 0,1.7215 0,2.62151c0,0.89999 0,1.7045 0,2.72116c0,0.8175 0,1.72701 0,2.67883c0,0.8 0,1.64284 0,2.56934c0,0.7825 0,1.79466 0,2.73067c0,0.90134 0,1.58533 0,2.51466c0,1.01733 0,1.89067 0,2.61734c0,1.004 0,1.95732 0,2.85333c0,0.91466 0,1.8145 0,2.66199c0,0.886 0,1.70001 0,2.62733c0,0.92534 0,1.7825 0,2.72084c0,0.87117 0,1.75717 0,2.65182c0,0.854 0,1.69551 0,2.62733c0,0.86134 0,1.82533 0,2.72534c0,0.89999 0,1.79984 0,2.64284l0,0.89049l0,0.81401l0,0.92732" fill="none" id="svg_23" stroke="#bfbf00" stroke-width="5"/>
  <path d="m354,191c-0.87866,0.00017 -1.52652,0.49033 -2.29999,0.95183c-0.80588,0.48085 -1.18631,1.04448 -1.67468,1.99751c-0.38821,0.7576 -0.69498,1.42668 -1.32532,2.29799c-0.47449,0.6559 -1.00632,1.39514 -1.41467,2.18333c-0.46439,0.89636 -0.75598,1.62193 -1.28534,2.40266c-0.45837,0.67604 -1.30756,1.28806 -1.71466,1.96667c-0.44147,0.73595 -0.80276,1.55035 -1.20132,2.39999c-0.40363,0.86043 -0.71902,1.50554 -1.08401,2.3c-0.41153,0.8958 -1.12787,1.44376 -1.57468,2.11067c-0.54376,0.81168 -0.25339,1.76483 -0.71066,2.58932c-0.38382,0.69205 -1.23624,1.24431 -2.01016,1.74733c-0.68906,0.44786 -1.10266,1.13788 -1.53784,1.886c-0.4245,0.72974 -1.02292,1.21722 -1.16666,2.13068c-0.13513,0.85875 -0.0683,1.84547 0.61066,2.036c0.85651,0.24034 1.73132,0.33234 2.27469,0.972c0.64551,0.7599 0.95285,1.28101 1.46198,2.07983c0.64786,1.01649 1.02164,1.72604 1.40533,2.40083c0.40796,0.71747 0.89099,1.50154 1.422,2.286c0.33566,0.4959 1.09476,1.43095 1.52084,2.00951c0.64142,0.87096 0.87897,1.5881 1.52585,2.47333c0.44968,0.61537 1.09018,1.16316 1.612,1.94518c0.47244,0.70798 0.34299,1.40465 0.88266,1.91866c0.63477,0.60458 1,0.91467 1.284,1.56201l0.57468,0.35266" fill="none" id="svg_24" stroke="#bfbf00" stroke-width="5"/>
  <path d="m384,184c-0.80133,0 -1.70001,0 -2.63599,0c-0.85068,0 -1.61069,0 -2.78534,0c-0.80402,0 -1.35333,0 -2.65735,0c-0.69598,0 -1.60532,0 -2.60532,0c-0.81601,0 -1.63202,0 -2.62933,0c-0.84,0 -1.85608,-0.18161 -2.68668,0.16667c-0.7153,0.29994 -1.3103,0.95284 -2.13867,1.39732c-0.85068,0.45647 -1.66068,0.66714 -2.29333,1.23734c-0.71295,0.64255 -1.35443,1.133 -1.96799,1.64534c-0.71939,0.60072 -1.10065,1.33665 -1.43335,2.38666c-0.24805,0.78282 -0.43738,1.5891 -0.74133,2.388c-0.36447,0.95792 -0.41379,1.79929 -0.42398,2.464c-0.01529,0.99721 -0.00134,1.79384 -0.00134,2.98134c0,0.69333 0,1.83333 0,2.38533c0,0.948 0,1.59 0,2.89333c0,0.79834 -0.00934,1.70738 0,2.57068c0.01044,0.96333 0.332,1.79895 0.94733,2.43132c0.55545,0.57083 1.4415,1.03403 2.33801,1.05267c0.91449,0.01903 1.66629,0.2393 2.35748,0.64734c0.75964,0.44844 1.67569,0.58092 2.35718,0.85266c0.97458,0.38861 1.77838,0.6188 2.60001,1.07466c0.7821,0.43393 1.52731,0.83421 2.39999,1.25867c0.65967,0.32086 1.49457,0.72566 2.32132,1.26668c0.65918,0.43137 1.54041,0.86536 2.15784,1.39999c0.6528,0.56525 1.24945,1.23831 1.72086,1.98399c0.42648,0.67464 0.87143,1.51941 1.5,2.2115c0.5705,0.62814 1.14502,1.41426 1.384,2.18983c0.23984,0.7784 0.55344,1.5103 1.21149,2.353c0.59479,0.7617 1.09952,1.45372 1.35184,2.11351c0.38248,1.00008 0.35266,1.9695 0.35266,2.64816c0,0.97867 0,1.884 0,2.81467c0,0.85201 0.07889,1.75693 0,2.61734c-0.08368,0.91277 -0.3443,1.74416 -1.10016,2.32516c-0.67389,0.51801 -1.7467,0.64079 -2.41583,1.04416c-0.75809,0.457 -1.33636,1.0519 -2.14117,1.49417c-0.72223,0.39691 -1.73907,0.65108 -2.50684,0.69383c-1.08179,0.06024 -1.99881,0.18768 -2.68268,0.436c-0.83548,0.30338 -1.83453,0.5112 -2.63248,0.55383c-0.75067,0.0401 -1.8595,0.02083 -2.6875,0.02083c-0.8125,0 -1.8125,0 -2.63467,0c-0.89868,0 -1.8942,0.2959 -2.69867,0c-0.61609,-0.22659 -0.5,-1.35266 -0.5,-2.284c0,-0.88268 0,-1.752 0,-2.63068c0,-0.91866 -0.42532,-1.51067 -1,-2.252l-0.03601,-0.86932l-0.61133,-0.61134" fill="none" id="svg_26" stroke="#bfbf00" stroke-width="5"/>
 </g>
</svg>